<svg xmlns="http://www.w3.org/2000/svg" viewBox="0 0 244.2 224.47"><defs><style>.cls-1{opacity:0.5;}.cls-2{fill:#212121;}.cls-3{fill:#04d361;}.cls-4{fill:#fff;}</style></defs><title>GoStack</title><g id="Layer_1" data-name="Layer 1"><g id="bootcamp" class="cls-1"><path class="cls-2" d="M85.12,224.24V208.08h5.66a7.39,7.39,0,0,1,4.46,1.13,3.82,3.82,0,0,1,1.52,3.3,3.54,3.54,0,0,1-2.31,3.42,3.38,3.38,0,0,1,2,1.25,3.69,3.69,0,0,1,.72,2.31A4.27,4.27,0,0,1,95.64,223a6.74,6.74,0,0,1-4.24,1.22Zm3.33-7v4.35H91.3a2.7,2.7,0,0,0,1.84-.56,1.91,1.91,0,0,0,.66-1.54A2,2,0,0,0,92,217.2a1.89,1.89,0,0,0-.53,0Zm0-2.35h2.47q2.52,0,2.52-2a1.89,1.89,0,0,0-.64-1.58,3.42,3.42,0,0,0-2-.49H88.45Zm33.68,1.67a9.86,9.86,0,0,1-.84,4.18,6.38,6.38,0,0,1-2.42,2.77,7.15,7.15,0,0,1-7.19,0,6.52,6.52,0,0,1-2.44-2.76,9.61,9.61,0,0,1-.87-4.13v-.79a9.67,9.67,0,0,1,.86-4.2,6.42,6.42,0,0,1,2.43-2.78,7.13,7.13,0,0,1,7.18,0,6.48,6.48,0,0,1,2.43,2.78,9.78,9.78,0,0,1,.86,4.19Zm-3.37-.73a6.86,6.86,0,0,0-.91-3.86,3.23,3.23,0,0,0-5.19,0,6.74,6.74,0,0,0-.92,3.82v.79a6.88,6.88,0,0,0,.91,3.84,3,3,0,0,0,2.62,1.36,2.93,2.93,0,0,0,2.57-1.32,6.84,6.84,0,0,0,.91-3.83Zm28.29.73a9.86,9.86,0,0,1-.84,4.18,6.38,6.38,0,0,1-2.42,2.77,7.1,7.1,0,0,1-7.18,0,6.36,6.36,0,0,1-2.44-2.75,9.47,9.47,0,0,1-.88-4.13v-.79a9.67,9.67,0,0,1,.86-4.2,6.42,6.42,0,0,1,2.43-2.78,7.13,7.13,0,0,1,7.18,0,6.43,6.43,0,0,1,2.43,2.78,9.57,9.57,0,0,1,.86,4.19Zm-3.37-.73a6.78,6.78,0,0,0-.91-3.86,2.94,2.94,0,0,0-2.6-1.32,3,3,0,0,0-2.59,1.3,6.74,6.74,0,0,0-.92,3.82v.79a7,7,0,0,0,.91,3.84,3.2,3.2,0,0,0,5.2,0,6.89,6.89,0,0,0,.9-3.84Zm26.24-5H165v13.46h-3.33V210.78h-4.88v-2.7h13.16Zm23.5,8.08a5.72,5.72,0,0,1-1.93,4.1,6.73,6.73,0,0,1-4.58,1.5,6.1,6.1,0,0,1-4.89-2.09,8.62,8.62,0,0,1-1.78-5.74v-1a9.68,9.68,0,0,1,.82-4.11,6.15,6.15,0,0,1,2.35-2.72,7.34,7.34,0,0,1,8.06.55,6.14,6.14,0,0,1,2,4.2h-3.33a3.38,3.38,0,0,0-.87-2.26,3.26,3.26,0,0,0-2.28-.71,2.85,2.85,0,0,0-2.5,1.19,6.77,6.77,0,0,0-.85,3.71v1.22a7.19,7.19,0,0,0,.8,3.83,2.76,2.76,0,0,0,2.5,1.2,3.31,3.31,0,0,0,2.31-.7,3.17,3.17,0,0,0,.87-2.18Zm20.54,2h-5.84L207,224.24h-3.54l6-16.16h3.09l6.05,16.16h-3.53Zm-4.94-2.7h4l-2-6.05Zm24.69-10.13,4.15,11.72L242,208.08h4.37v16.16H243v-4.42l.33-7.63L239,224.24H236.7l-4.35-12,.33,7.61v4.42h-3.32V208.09Zm28.12,10.47v5.69H258.5V208.08h6.3a7.19,7.19,0,0,1,3.2.67,4.87,4.87,0,0,1,2.13,1.89,5.26,5.26,0,0,1,.74,2.79,4.62,4.62,0,0,1-1.62,3.74,6.76,6.76,0,0,1-4.5,1.37Zm0-2.7h3a3,3,0,0,0,2-.62,2.27,2.27,0,0,0,.69-1.78,2.68,2.68,0,0,0-.7-1.92,2.61,2.61,0,0,0-1.93-.75h-3.05Z" transform="translate(-55.9)"/></g><path id="GoStack" class="cls-2" d="M93.63,191.34a16.4,16.4,0,0,1-7.27,4.78A30.27,30.27,0,0,1,76,197.82a20.71,20.71,0,0,1-10.53-2.61,17.55,17.55,0,0,1-7-7.61,26.77,26.77,0,0,1-2.52-11.72v-3.14a28.38,28.38,0,0,1,2.33-12A17.29,17.29,0,0,1,65,153a19.39,19.39,0,0,1,10.3-2.69q8.22,0,12.86,3.92t5.5,11.42H84.36a9.17,9.17,0,0,0-2.81-5.81,9,9,0,0,0-6-1.84,8.43,8.43,0,0,0-7.4,3.65q-2.53,3.65-2.57,10.86v2.95q0,7.28,2.76,11c1.84,2.48,4.54,3.71,8.1,3.71s6.13-.76,7.65-2.28v-8H75.44v-7h18.2Zm5.69-11.65a20.33,20.33,0,0,1,2-9.11,14.35,14.35,0,0,1,5.66-6.19,16.58,16.58,0,0,1,8.59-2.2,15.62,15.62,0,0,1,11.35,4.26q4.39,4.26,4.91,11.56l.07,2.35q0,7.9-4.42,12.68t-11.84,4.78q-7.44,0-11.86-4.76c-3-3.18-4.43-7.49-4.43-13Zm9.17.67q0,4.89,1.85,7.48a6.62,6.62,0,0,0,10.48,0c1.24-1.71,1.87-4.43,1.87-8.18,0-3.2-.63-5.67-1.87-7.43a6.11,6.11,0,0,0-5.28-2.64,6,6,0,0,0-5.2,2.62Q108.5,174.87,108.49,180.36Zm53.61,4.7a4.91,4.91,0,0,0-1.91-4.15,25.15,25.15,0,0,0-6.86-3,48.31,48.31,0,0,1-7.84-3.16q-7.87-4.24-7.88-11.46a11.11,11.11,0,0,1,2.12-6.68,13.76,13.76,0,0,1,6.06-4.59,22.7,22.7,0,0,1,8.88-1.65,20.61,20.61,0,0,1,8.82,1.79,14.05,14.05,0,0,1,6,5.06,13.25,13.25,0,0,1,2.14,7.44h-9.52a6.25,6.25,0,0,0-2-4.94,8.23,8.23,0,0,0-5.62-1.76,8.72,8.72,0,0,0-5.43,1.48,4.63,4.63,0,0,0-1.94,3.88,4.45,4.45,0,0,0,2.27,3.78,25.47,25.47,0,0,0,6.68,2.86q8.13,2.44,11.85,6.07a12,12,0,0,1,3.71,9,11.14,11.14,0,0,1-4.54,9.42q-4.55,3.41-12.23,3.41a23.48,23.48,0,0,1-9.71-1.95,15.36,15.36,0,0,1-6.68-5.35,13.72,13.72,0,0,1-2.31-7.88h9.56q0,7.65,9.15,7.65a8.86,8.86,0,0,0,5.3-1.38,4.48,4.48,0,0,0,1.91-3.85Zm26.38-30.68v8.45h5.87v6.74h-5.87v17.14a4.07,4.07,0,0,0,.73,2.73,3.68,3.68,0,0,0,2.8.83,15.29,15.29,0,0,0,2.7-.22V197a18.72,18.72,0,0,1-5.56.82q-9.66,0-9.84-9.75v-18.5h-5v-6.74h5v-8.45Zm30.9,42.81a10.05,10.05,0,0,1-.92-3.08,11.13,11.13,0,0,1-8.67,3.71,12.2,12.2,0,0,1-8.37-2.92,9.4,9.4,0,0,1-3.32-7.37,9.71,9.71,0,0,1,4.05-8.38q4-2.93,11.7-3h4.23v-2a5.65,5.65,0,0,0-1.23-3.81A4.78,4.78,0,0,0,213,169a5.47,5.47,0,0,0-3.64,1.11,3.78,3.78,0,0,0-1.32,3.05h-9.17a9.19,9.19,0,0,1,1.84-5.53,12.11,12.11,0,0,1,5.21-4,18.8,18.8,0,0,1,7.55-1.45q6.36,0,10.09,3.2t3.73,9v14.89q0,4.89,1.36,7.4v.54Zm-7.59-6.39a7.89,7.89,0,0,0,3.75-.9,6,6,0,0,0,2.54-2.43v-5.9h-3.43q-6.9,0-7.34,4.76l0,.54a3.65,3.65,0,0,0,1.21,2.82A4.67,4.67,0,0,0,211.79,190.8Zm36.84-.38a6,6,0,0,0,4.12-1.39,4.86,4.86,0,0,0,1.65-3.72H263a11.79,11.79,0,0,1-1.91,6.4,12.5,12.5,0,0,1-5.13,4.51,16.11,16.11,0,0,1-7.19,1.6q-7.36,0-11.62-4.69t-4.25-12.93v-.61q0-7.93,4.22-12.67t11.59-4.73q6.45,0,10.34,3.67a13,13,0,0,1,3.95,9.77H254.4a6.21,6.21,0,0,0-1.65-4.34,6.14,6.14,0,0,0-9,.67q-1.64,2.32-1.64,7.57v.95q0,5.29,1.62,7.62A5.61,5.61,0,0,0,248.63,190.42Zm32.1-7-3.3,3.3v10.48h-9.18V148.41h9.18v27l1.77-2.29,8.8-10.32h11L286.6,177.15l13.5,20H289.56Z" transform="translate(-55.9)"/></g><g id="Logo"><path class="cls-2" d="M237.12,30.81c-17.69-9.71-35.6-19.64-53.3-29.35a12.33,12.33,0,0,0-11.65,0c-17.7,9.71-35.39,19.63-53.09,29.35a11,11,0,0,0-5.82,9.28V99.22a10.72,10.72,0,0,0,6,9.49c5,2.59,9.71,5.4,14.68,8l28.91,16,8.85,5a7.82,7.82,0,0,0,1.94.86l.87.43h.21a12.39,12.39,0,0,0,8.85-.86c17.7-9.71,35.39-19.64,53.09-29.35a10.86,10.86,0,0,0,6-9.5V40.08A11.08,11.08,0,0,0,237.12,30.81Z" transform="translate(-55.9)"/><path class="cls-3" d="M216.57,44.47c-11.52-6.33-23.19-12.79-34.71-19.11a8,8,0,0,0-7.58,0c-11.52,6.32-23.05,12.78-34.57,19.11a7.16,7.16,0,0,0-3.79,6V89a7,7,0,0,0,3.94,6.18c3.23,1.69,6.32,3.52,9.55,5.2l18.83,10.4L174,114a4.58,4.58,0,0,0,1.26.56l.56.28H176a8.1,8.1,0,0,0,5.76-.56c11.52-6.32,23-12.78,34.56-19.11A7.07,7.07,0,0,0,220.23,89V50.5A7.23,7.23,0,0,0,216.57,44.47ZM166.69,87.6l-9,8.29a.51.51,0,0,1-.42.14h-.15a.27.27,0,0,1-.18-.33.19.19,0,0,1,0-.09l3.24-11.81A3.94,3.94,0,0,1,162.75,81l.14-.14a1.27,1.27,0,0,1,1,.14c.56.43,1,.71,1.55,1.13a10.09,10.09,0,0,0,1.68,1,1,1,0,0,1,.56.85l.28.28a3.93,3.93,0,0,1-1.26,3.37ZM176,79.45c-.14,0-.14.14-.28.14l-2.81-.28a1,1,0,0,0-.84.28l-3.09,2.81a.51.51,0,0,1-.42.14A20.53,20.53,0,0,1,164.3,80c-.14-.14-.28-.28-.14-.42l1-4.07a1,1,0,0,0-.14-.85l-1.55-2.39c0-.14-.14-.14-.14-.28s.14-.56.14-1v-.14h0s.14-.14.14,0c1.26.84,6.6,4.07,6.6,4.07s5.34,3.23,6.61,4.08a.53.53,0,0,1,.14.42Zm18.83-25.71.14.14,2.81.42h.14c.56.14,1.26.84.28,2.11l-11.8,16a.74.74,0,0,1-.56.14l-4.78-3a1.52,1.52,0,0,0-1.54,0l-1.55,1a1.52,1.52,0,0,1-1.54,0,2.19,2.19,0,0,0-3,.28,5.91,5.91,0,0,1-6.88.28l-6.32-3.94-.28-.28h0a1.82,1.82,0,0,1-.23-2.57l.09-.1h0a2.06,2.06,0,0,1,2.8-.7l1.27.7H164c.14.14.28,0,.28-.14l.28-1.69c0-.14,0-.28-.14-.28l-.28-.14a1.3,1.3,0,0,1-.42-1.68,1.12,1.12,0,0,1,1.54-.43h0l8.57,5.2H174c.14.14.28,0,.42-.14l8.85-12.08a1.54,1.54,0,0,1,1.54-.56l2.25.28,1.55.28c0,.14.14,0,.14,0s.14-.14,0-.14a1.33,1.33,0,0,1-.28-1.83l2.95-4.07a1.6,1.6,0,0,1,1.4-.56l5.62.84a.75.75,0,0,1,.57.28l.14.14c.28.28.14.7-.14,1,0,0-2.81,3.79-3.8,5.19v.14c-.7-.41-.7-.27-.42-.13Z" transform="translate(-55.9)"/><path class="cls-4" d="M189.59,29.71c4.36-3.37,6.75-4.07,10.4-4.07a7.16,7.16,0,0,1,3.09.7c3.23,1.83,4.64,7.31,3.65,15.17L211.37,44c1.55-11.23-.56-19-6-22a11.08,11.08,0,0,0-5.62-1.41c-4.92,0-8.85,1.41-15,6.32C186.5,27.89,188.05,28.87,189.59,29.71Z" transform="translate(-55.9)"/><path class="cls-4" d="M135.92,78.89c-6.46-3.09-8-5.62-8-9.13,0-3.66,3.66-7.17,10.26-10.26V53.88c-9.84,4.07-15.32,9.69-15.32,15.73s3.23,10.54,13.07,14.62Z" transform="translate(-55.9)"/><path class="cls-4" d="M149,39.27c-.84-7.73.57-11,3.94-12.79a5,5,0,0,1,3.09-.7c3.66,0,7.87,2,12.22,5.34l4.64-2.53c-6-4.92-12.08-7.73-17-7.73a11.18,11.18,0,0,0-5.62,1.41c-5.48,3.23-7.73,8.57-6,19.81C145.9,41,147.44,40.11,149,39.27Z" transform="translate(-55.9)"/><path class="cls-4" d="M220.08,55.28v5.34c6.46,3.09,8,5.62,8,9.13S224.43,76.92,217.83,80v5.62c9.84-4.08,15.32-9.7,15.32-15.74S230.05,59.36,220.08,55.28Z" transform="translate(-55.9)"/><path class="cls-4" d="M166.55,109.66c-4.36,3.37-6.75,4.07-10.4,4.07a7.2,7.2,0,0,1-3.09-.7c-3.37-1.83-4.64-7.45-3.65-15.17-1.55-.85-3.23-1.69-4.78-2.67-1.54,11.1.56,18.82,5.9,21.91a11.18,11.18,0,0,0,5.62,1.41c4.92.14,9-1.27,15.17-6.18Z" transform="translate(-55.9)"/><path class="cls-4" d="M207,100.24c.85,7.73-.7,11-3.93,12.79a5,5,0,0,1-3.1.7c-3.65,0-7.86-2-12.36-5.34-1.54.84-3.09,1.69-4.78,2.53,6.19,5.06,12.09,7.87,17.15,7.87a11.18,11.18,0,0,0,5.62-1.41c5.48-3.23,7.86-8.57,6-19.81C210.24,98.42,208.56,99.26,207,100.24Z" transform="translate(-55.9)"/></g></svg>